<svg xmlns="http://www.w3.org/2000/svg" xml:space="preserve" viewBox="0 0 72 72"><path fill="#F4AA41" d="M23.5 14.6 19 16.3l-7.2 8.5-4.6 10.8 2 5.2c1.3 3.8 3.5 7.2 7.2 10l2.5-3.3s3.8 7.7 10.7 9c0 0 10.3 1.9 15.6-.9 3.4-1.8 4.4-4.4 4.4-4.4l3.4-3.4 1.6 2.3 2.1-.1 5.4-7.2 1.8-5.4-.2-4.5-2.3-5.5-4.8-7.4s-2.7-4.9-8.2-3.9c0 0-6.5-4.8-11.8-4.1s-4.5-1.3-13.1 2.6z"/><path fill="#EA5A47" d="m36 47.3-3.1 2.4h-2.5l-.1 3.8.8 3.5 1.1 1.9 2.8 1.5 4.6-.6 1.6-1.7 1-4.3-.3-4-2 .3z"/><path fill="#3F3F3F" d="m32.5 36.9-1.6 3.8 2.2 1.2 1.2.5 4.4.2 2.9-2.3-1.8-3.2z"/><path fill="#1D1D1B" d="M29.5 30.1s-1.8 1.2-2.7.7c-.9-.6-1.2-1.8-.7-2.7s1.8-1.2 2.7-.7.7 2.7.7 2.7z"/><path fill="none" stroke="#000" stroke-linecap="round" stroke-linejoin="round" stroke-miterlimit="10" stroke-width="2" d="M33.1 37h6.1c.4 0 .8.2.9.6l1.2 2.7-2.2 1.1c-.6.3-1.4-.1-1.5-.8M34.8 40.8c-.1.6-.8 1-1.4.7l-2.3-1 1.1-2.9c.1-.4.5-.6.9-.6M30.4 50s-.7 8.8 3 9.9c2.6.8 5.1.5 6.1-.2.9-.8 2.6-4.5 1.8-9.7"/><path fill="#1D1D1B" d="M44.3 30.1s1.8 1.2 2.7.7c.9-.6 1.2-1.8.7-2.7-.6-.9-1.8-1.2-2.7-.7-1 .5-.7 2.7-.7 2.7z"/><path fill="none" stroke="#000" stroke-linecap="round" stroke-linejoin="round" stroke-miterlimit="10" stroke-width="2" d="M25.6 42.8c-.5 3.6 2.2 5.8 4.3 6.8 1.2.6 2.7.5 3.7-.3l2.6-2 2.6 2c1.1.8 2.5 1 3.7.3 2.1-1.1 4.8-3.2 4.3-6.8"/><path fill="none" stroke="#000" stroke-linecap="round" stroke-linejoin="round" stroke-miterlimit="10" stroke-width="2" d="M20 28.4c-2.3 5.2-.5 13 .1 15.4.1.5.1.9-.1 1.4l-2 4.2c-.6 1.3-2.4 1.6-3.3.4-3.3-3.9-8.6-11.5-6.6-16.8C15.2 14.4 24 14.9 24 14.9c2.8-1.9 13-6.9 24.8.9 0 0 8.6-1.7 14.9 16.9 1.8 5.3-3.4 12.9-6.6 16.6-.9 1.1-2.7.9-3.3-.4l-2-4.2c-.2-.4-.2-.9-.1-1.4.6-2.4 2.4-10.2.1-15.4"/><path fill="none" stroke="#000" stroke-linecap="round" stroke-linejoin="round" stroke-miterlimit="10" stroke-width="2" d="M52.6 46.5s-3.1 6.7-7.8 8.3M19.4 47s3.1 6.1 7.8 7.6M36.2 47.3v-3"/></svg>